<?xml version="1.0" ?><svg id="Layer_1" style="enable-background:new 0 0 512 512;" version="1.1" viewBox="0 0 512 512" xml:space="preserve" xmlns="http://www.w3.org/2000/svg" xmlns:xlink="http://www.w3.org/1999/xlink"><style type="text/css">
	.st0{fill:none;stroke:#000000;stroke-width:12;stroke-linecap:round;stroke-linejoin:round;stroke-miterlimit:10;}
</style><g><path class="st0" d="M333.9,140.9c0.5,0.5-0.5-0.9,0-0.4 M350.3,153.3c22.1,18.2,44.2,36.5,66.4,54.7c9.2,7.6,18.5,15.1,27.6,22.9   c2.7,2.3,4.7,5.5,7,8.3c0,1.8,0,3.6,0,5.3c-2.5,2.8-4.7,6-7.5,8.3c-55.5,46.1-111.1,92.1-166.8,137.9c-2.5,2-6,3.5-9.1,3.9   c-5.4,0.6-9.7-3.7-10.3-9.1c-0.2-1.6-0.2-3.3-0.2-4.9c0-6.4,0-12.8,0-19.2 M257.2,337.4c0-7.6,0-15.1,0-22.7c0-1.5,0-3,0-4.6   c-0.8-0.2-1.2-0.5-1.7-0.5c-18.8,0.4-37.6,0.5-56.2,4c-26.1,5-48.4,17-67.5,35.3c-18.7,17.9-33.2,39-46.3,61.1   c-1.5,2.5-3,5-4.5,7.5c-2.4,3.9-5.9,5.9-10.5,5.4c-4.5-0.5-7.4-3.1-9-7.2c-0.2-0.4-0.5-0.9-0.7-1.3c0-14.7,0-29.5,0-44.2   c0.5-6.2,1-12.3,1.5-18.5c1.7-20.5,5-40.8,11.4-60.5c4.7-14.3,10.8-27.3,18.3-39 M117.6,222.1c13.8-12.5,30.2-22.5,49.1-30.2   c25.6-10.3,52.3-15.1,79.7-16.9c3.3-0.2,6.6-0.5,9.9-0.7c0.2,0,0.4-0.2,1-0.5c0-1.3,0-2.8,0-4.3c0-22.7,0-45.5,0-68.2   c0-8.2,4.8-13.3,11.9-12.2c2.6,0.4,5.3,1.9,7.3,3.6c13.5,11.1,27,22.2,40.4,33.2"/></g></svg>